<?xml version="1.0" encoding="UTF-8"?><svg xmlns="http://www.w3.org/2000/svg" viewBox="0 0 340.81 167.22"><defs><style>.d{fill:#fff;}</style></defs><g id="a"/><g id="b"><g id="c"><g><path class="d" d="M113.47,160.66V82.9c0-1.47,1.19-2.65,2.65-2.65h9.46c1.47,0,2.65,1.19,2.65,2.65v77.76c0,1.47-1.19,2.65-2.65,2.65h-9.46c-1.47,0-2.65-1.19-2.65-2.65Z"/><path class="d" d="M164.81,164.7c-7.15,0-12.67-2.23-16.56-6.69-3.89-4.46-5.83-11-5.83-19.61v-29.65c0-1.47,1.19-2.65,2.65-2.65h9.35c1.47,0,2.65,1.19,2.65,2.65v28.27c0,4.92,1,8.69,3,11.31,2,2.62,5.15,3.92,9.46,3.92,4.08,0,7.44-1.46,10.1-4.38,2.65-2.92,3.98-7,3.98-12.23v-26.88c0-1.47,1.19-2.65,2.65-2.65h9.46c1.47,0,2.65,1.19,2.65,2.65v51.92c0,1.47-1.19,2.65-2.65,2.65h-8.03c-1.34,0-2.48-1-2.63-2.34l-.09-.76c-.26-2.19-2.91-3.12-4.48-1.57-1.17,1.15-2.5,2.17-3.97,3.06-3.35,2-7.25,3-11.71,3Z"/><path class="d" d="M247.41,164.7c-4.31,0-8.08-.81-11.31-2.42-1.67-.83-3.17-1.84-4.52-3.03-1.55-1.37-3.98-.62-4.4,1.41l-.11,.54c-.25,1.23-1.34,2.12-2.6,2.12h-8.34c-1.47,0-2.65-1.19-2.65-2.65V82.9c0-1.47,1.19-2.65,2.65-2.65h9.46c1.47,0,2.65,1.19,2.65,2.65v24.8c0,2.24,2.59,3.46,4.33,2.05,.93-.76,1.93-1.48,3-2.16,3.04-1.92,6.98-2.88,11.82-2.88,5.38,0,10.19,1.31,14.42,3.92,4.23,2.62,7.57,6.19,10.04,10.73,2.46,4.54,3.69,9.69,3.69,15.46s-1.23,10.9-3.69,15.4c-2.46,4.5-5.81,8.04-10.04,10.61-4.23,2.58-9.04,3.86-14.42,3.86Zm-3.11-12.92c4.69,0,8.57-1.58,11.65-4.73,3.08-3.15,4.61-7.23,4.61-12.23s-1.54-9.11-4.61-12.34c-3.08-3.23-6.96-4.85-11.65-4.85s-8.67,1.6-11.71,4.79c-3.04,3.19-4.56,7.29-4.56,12.29s1.52,9.1,4.56,12.29c3.04,3.19,6.94,4.79,11.71,4.79Z"/><path class="d" d="M159.81,16.81c-2.43-4.26-5.79-7.63-10.1-10.08-4.3-2.47-9.27-3.7-14.88-3.7-6.01,0-11.22,1.29-15.64,3.87-4.42,2.57-7.88,6.16-10.37,10.78-2.51,4.62-3.75,9.89-3.75,15.8s1.27,11.01,3.8,15.47c2.53,4.46,6.03,7.92,10.49,10.37,4.46,2.47,9.58,3.7,15.35,3.7,4.61,0,8.75-.84,12.39-2.53,3.66-1.7,6.73-4.03,9.24-6.98,2.02-2.4,3.57-5.02,4.67-7.84,.37-.97-.34-2.02-1.38-2.02h-12.03c-.55,0-1.04,.32-1.3,.8-.99,1.79-2.37,3.26-4.15,4.44-2.05,1.35-4.57,2.02-7.56,2.02-4,0-7.4-1.27-10.2-3.8-3.38-3.06-4.12-7.13-4.57-9.4-.52-2.65-.43-4.74-.35-6.32,.12-2.42,.24-4.73,1.43-7.47,.52-1.19,1.63-3.82,4.35-5.83,2.77-2.05,5.97-3.06,9.58-3.06s6.92,1.11,9.45,3.34c2.14,1.89,3.46,4.31,3.96,7.27,.15,.9-.54,1.73-1.46,1.73h-20.31c-.81,0-1.47,.66-1.47,1.47v6.29c0,.81,.66,1.47,1.47,1.47h35.36c.77,0,1.42-.6,1.47-1.38,.03-.51,.06-1.01,.08-1.5,.04-.92,.05-1.81,.05-2.65,0-5.23-1.21-9.98-3.63-14.26Z"/><path class="d" d="M203.36,63.02c-5.54,0-10.52-1.27-14.94-3.81-4.42-2.54-7.92-6.06-10.5-10.56-2.58-4.5-3.86-9.71-3.86-15.63s1.31-11.13,3.92-15.63c2.61-4.5,6.13-8.02,10.56-10.56,4.42-2.54,9.4-3.81,14.94-3.81s10.4,1.27,14.83,3.81c4.42,2.54,7.92,6.06,10.5,10.56,2.58,4.5,3.86,9.71,3.86,15.63s-1.29,11.13-3.86,15.63c-2.58,4.5-6.1,8.02-10.56,10.56-4.46,2.54-9.42,3.81-14.88,3.81Zm0-12.81c3.85,0,7.19-1.44,10.04-4.33,2.84-2.88,4.27-7.17,4.27-12.86s-1.42-9.98-4.27-12.86c-2.85-2.88-6.15-4.33-9.92-4.33s-7.29,1.44-10.09,4.33c-2.81,2.88-4.21,7.17-4.21,12.86s1.4,9.98,4.21,12.86c2.81,2.88,6.13,4.33,9.98,4.33Z"/><path class="d" d="M79,167.22c-19.06,0-34.57-15.5-34.57-34.55s15.51-34.55,34.57-34.55c8.42,0,16.53,3.09,22.8,8.6,1.65,1.45,1.69,4,.06,5.46l-6.53,5.86c-1.31,1.17-3.28,1.25-4.65,.15-5.02-4.05-11.99-5.37-18.45-2.86-6.98,2.71-11.73,9.54-11.86,17.02-.17,10.41,8.25,18.93,18.63,18.93,4.27,0,8.39-1.48,11.68-4.13,1.37-1.1,3.34-1.02,4.65,.15l6.53,5.86c1.63,1.46,1.59,4.01-.06,5.46-6.27,5.51-14.38,8.6-22.8,8.6Z"/><g><path class="d" d="M13.29,63.02H2.65C1.19,63.02,0,61.83,0,60.37V29.22C0,13.77,11.99,.57,27.42,.02c16.17-.58,29.51,12.4,29.51,28.45v17.24c0,1.46-1.19,2.65-2.65,2.65h-10.64c-1.46,0-2.65-1.19-2.65-2.65V28.96c0-6.7-5.04-12.58-11.72-13-7.27-.46-13.33,5.33-13.33,12.5v31.91c0,1.46-1.19,2.65-2.65,2.65Z"/><path class="d" d="M95.28,63.02h-10.64c-1.46,0-2.65-1.19-2.65-2.65V28.96c0-6.7-5.04-12.58-11.72-13-7.27-.46-13.33,5.33-13.33,12.5v17.24c0,1.46-1.19,2.65-2.65,2.65h-10.64c-1.46,0-2.65-1.19-2.65-2.65V29.22c0-15.45,11.99-28.65,27.42-29.2,16.17-.58,29.51,12.4,29.51,28.45v31.91c0,1.46-1.19,2.65-2.65,2.65Z"/></g><g><path class="d" d="M311.3,63c-15.44-.55-27.42-13.75-27.42-29.2V17.32c0-1.46,1.19-2.65,2.65-2.65h10.64c1.46,0,2.65,1.19,2.65,2.65v16.74c0,6.7,5.04,12.58,11.72,13,7.27,.46,13.34-5.33,13.34-12.5V2.65c0-1.46,1.19-2.65,2.65-2.65h10.64c1.46,0,2.65,1.19,2.65,2.65v31.91c0,16.04-13.34,29.03-29.51,28.45Z"/><path class="d" d="M270.3,63c-15.44-.55-27.42-13.75-27.42-29.2V2.65c0-1.46,1.19-2.65,2.65-2.65h10.64c1.46,0,2.65,1.19,2.65,2.65v31.41c0,6.7,5.04,12.58,11.72,13,7.27,.46,13.34-5.33,13.34-12.5V17.32c0-1.46,1.19-2.65,2.65-2.65h10.64c1.46,0,2.65,1.19,2.65,2.65v17.24c0,16.04-13.34,29.03-29.51,28.45Z"/></g></g></g></g></svg>