<?xml version="1.0" encoding="UTF-8"?><svg xmlns="http://www.w3.org/2000/svg" viewBox="0 0 236.78 146.95"><defs><style>.d{fill:#fff;}</style></defs><g id="a"/><g id="b"><g id="c"><g><rect class="d" x="95.63" y="43.47" width="92.09" height="19.47" rx="3.18" ry="3.18" transform="translate(24.75 149.3) rotate(-60)"/><rect class="d" x="133.02" y="6.23" width="19.48" height="76.35" rx="3.18" ry="3.18" transform="translate(-3.87 73.59) rotate(-28.54)"/><rect class="d" x="48.88" y="49.53" width="69.34" height="19.48" rx="3.18" ry="3.18" transform="translate(-2.69 114.54) rotate(-68.01)"/><rect class="d" x="73" y="22.01" width="19.48" height="65.61" rx="3.18" ry="3.18" transform="translate(-15.06 71.71) rotate(-43.33)"/><rect class="d" x="13.39" y="30.28" width="19.47" height="44.32" rx="3.18" ry="3.18" transform="translate(-33.07 63.69) rotate(-77.52)"/><rect class="d" x="1.65" y="82.27" width="45.13" height="19.47" rx="3.18" ry="3.18" transform="translate(-10.55 3.45) rotate(-6.69)"/><rect class="d" x="183.08" y="9.16" width="45.48" height="19.47" rx="3.18" ry="3.18" transform="translate(19.82 109.03) rotate(-31.1)"/><rect class="d" x="190.33" y="53.06" width="46.12" height="19.47" rx="3.18" ry="3.18" transform="translate(-3.06 11.53) rotate(-3.07)"/><path class="d" d="M109.36,146.95c-7.16,0-14.32-.47-21.45-1.42-1.76-.23-2.97-1.89-2.71-3.65l1.99-12.98c.26-1.71,1.85-2.87,3.56-2.64,12.72,1.67,25.59,1.62,38.29-.15,12.04-1.68,23.81-4.89,35.03-9.56,1.6-.67,3.43,.04,4.13,1.63l5.3,12.01c.72,1.62-.03,3.54-1.66,4.23-12.84,5.37-26.32,9.06-40.12,10.99-7.43,1.04-14.91,1.55-22.38,1.55Z"/></g></g></g></svg>